<svg width="24" height="24" viewBox="0 0 24 24" fill="none" xmlns="http://www.w3.org/2000/svg">
<path fill-rule="evenodd" clip-rule="evenodd" d="M11.7313 6.75C11.6257 6.75 11.5401 6.84402 11.5401 6.96V7.89644H9.44118C9.33559 7.89644 9.25 7.99047 9.25 8.10644L9.25 15.8936C9.25 16.0095 9.33559 16.1036 9.44118 16.1036H11.5401V17.04C11.5401 17.156 11.6257 17.25 11.7313 17.25H12.5406C12.6462 17.25 12.7318 17.156 12.7318 17.04V16.1036H13.2793C13.7245 16.1036 14.137 16.0111 14.5139 15.8233C14.8936 15.6342 15.1984 15.358 15.4179 14.9903C15.6423 14.6204 15.75 14.1969 15.75 13.7213C15.75 13.1857 15.6297 12.7311 15.3706 12.3781C15.1977 12.1426 14.9705 11.9627 14.6956 11.834C14.8649 11.7041 15.0134 11.5457 15.1376 11.3572C15.3575 11.0235 15.4673 10.6343 15.4673 10.1915C15.4673 9.46389 15.2663 8.87856 14.8384 8.4765C14.4167 8.0803 13.8212 7.89644 13.0814 7.89644L12.7318 7.89644V6.96C12.7318 6.84402 12.6462 6.75 12.5406 6.75H11.7313ZM10.5477 11.3291L10.5477 9.05392H11.5401L11.5401 11.3291H10.5477ZM12.7318 11.3291L12.7318 9.05392L12.9188 9.05392C13.4113 9.05392 13.723 9.15936 13.8976 9.32239C14.0632 9.47697 14.1696 9.75558 14.1696 10.215C14.1696 10.6014 14.0658 10.8691 13.8873 11.0436C13.7047 11.2221 13.4214 11.3291 13.0107 11.3291H12.7318ZM10.5477 14.9494V12.4832H11.5401V14.9494H10.5477ZM12.7318 14.9494V12.4832H12.9541C13.5178 12.4832 13.8936 12.592 14.1214 12.7718C14.3269 12.9366 14.4523 13.2254 14.4523 13.6979C14.4523 14.1937 14.3302 14.4923 14.1344 14.6579C13.9168 14.8423 13.5771 14.9494 13.0814 14.9494H12.7318Z" fill="#454754"/>
<path fill-rule="evenodd" clip-rule="evenodd" d="M22 12C22 17.5228 17.5228 22 12 22C6.47715 22 2 17.5228 2 12C2 6.47715 6.47715 2 12 2C17.5228 2 22 6.47715 22 12ZM20 12C20 16.4183 16.4183 20 12 20C7.58172 20 4 16.4183 4 12C4 7.58172 7.58172 4 12 4C16.4183 4 20 7.58172 20 12Z" fill="#454754"/>
</svg>
