<svg width="167" height="167" viewBox="0 0 167 167" fill="none" xmlns="http://www.w3.org/2000/svg">
<rect width="167" height="167" rx="8" fill="#FFF1EC"/>
<path d="M84 40C80.0444 40 76.1776 41.173 72.8886 43.3706C69.5996 45.5682 67.0362 48.6918 65.5224 52.3463C64.0087 56.0009 63.6126 60.0222 64.3843 63.9018C65.156 67.7814 67.0608 71.3451 69.8579 74.1421C72.6549 76.9392 76.2186 78.844 80.0982 79.6157C83.9778 80.3874 87.9992 79.9913 91.6537 78.4776C95.3082 76.9638 98.4318 74.4004 100.629 71.1114C102.827 67.8224 104 63.9556 104 60C104 57.3736 103.483 54.7728 102.478 52.3463C101.473 49.9198 99.9993 47.715 98.1421 45.8579C96.285 44.0007 94.0802 42.5275 91.6537 41.5224C89.2272 40.5173 86.6264 40 84 40ZM84 76C80.8355 76 77.7421 75.0616 75.1109 73.3035C72.4797 71.5454 70.4289 69.0466 69.2179 66.1229C68.0069 63.1993 67.6901 59.9823 68.3074 56.8786C68.9248 53.7749 70.4487 50.9239 72.6863 48.6863C74.9239 46.4487 77.7749 44.9248 80.8786 44.3074C83.9823 43.6901 87.1993 44.0069 90.1229 45.2179C93.0466 46.4289 95.5454 48.4797 97.3035 51.1109C99.0616 53.7421 100 56.8355 100 60C100 64.2435 98.3143 68.3131 95.3137 71.3137C92.3131 74.3143 88.2435 76 84 76ZM92 58H86V52C86 51.4696 85.7893 50.9609 85.4142 50.5858C85.0392 50.2107 84.5304 50 84 50C83.4696 50 82.9609 50.2107 82.5858 50.5858C82.2107 50.9609 82 51.4696 82 52V58H76C75.4696 58 74.9609 58.2107 74.5858 58.5858C74.2107 58.9609 74 59.4696 74 60C74 60.5304 74.2107 61.0391 74.5858 61.4142C74.9609 61.7893 75.4696 62 76 62H82V68C82 68.5304 82.2107 69.0391 82.5858 69.4142C82.9609 69.7893 83.4696 70 84 70C84.5304 70 85.0392 69.7893 85.4142 69.4142C85.7893 69.0391 86 68.5304 86 68V62H92C92.5304 62 93.0392 61.7893 93.4142 61.4142C93.7893 61.0391 94 60.5304 94 60C94 59.4696 93.7893 58.9609 93.4142 58.5858C93.0392 58.2107 92.5304 58 92 58Z" fill="#FF7037"/>
<rect x="7" y="84" width="153" height="48" rx="24" fill="#FFF1EC"/>
<path d="M32.4973 109.728V102.304H34.5453V109.6C34.5453 111.28 35.4573 112.208 37.1213 112.208C38.7853 112.208 39.7133 111.264 39.7133 109.6V102.304H41.7613V109.728C41.7613 112.464 39.9693 114.192 37.1213 114.192C34.2893 114.192 32.4973 112.48 32.4973 109.728ZM43.9924 117.664V106.096H45.8004L45.9284 107.296C46.4084 106.384 47.4484 105.856 48.6484 105.856C50.8724 105.856 52.3444 107.472 52.3444 109.952C52.3444 112.416 51.0004 114.208 48.6484 114.208C47.4644 114.208 46.4404 113.744 45.9444 112.944V117.664H43.9924ZM45.9604 110.048C45.9604 111.472 46.8404 112.448 48.1844 112.448C49.5604 112.448 50.3764 111.456 50.3764 110.048C50.3764 108.64 49.5604 107.632 48.1844 107.632C46.8404 107.632 45.9604 108.624 45.9604 110.048ZM55.8666 114H53.9306V102.096H55.8666V114ZM57.4503 110.032C57.4503 107.568 59.2263 105.872 61.6743 105.872C64.1223 105.872 65.8983 107.568 65.8983 110.032C65.8983 112.496 64.1223 114.192 61.6743 114.192C59.2263 114.192 57.4503 112.496 57.4503 110.032ZM59.4023 110.032C59.4023 111.472 60.3303 112.448 61.6743 112.448C63.0183 112.448 63.9463 111.472 63.9463 110.032C63.9463 108.592 63.0183 107.616 61.6743 107.616C60.3303 107.616 59.4023 108.592 59.4023 110.032ZM69.7975 114.208C68.1175 114.208 67.0935 113.232 67.0935 111.744C67.0935 110.288 68.1495 109.376 70.0215 109.232L72.3895 109.056V108.88C72.3895 107.808 71.7495 107.376 70.7575 107.376C69.6055 107.376 68.9655 107.856 68.9655 108.688H67.3015C67.3015 106.976 68.7095 105.856 70.8535 105.856C72.9815 105.856 74.2935 107.008 74.2935 109.2V114H72.5815L72.4375 112.832C72.1015 113.648 71.0295 114.208 69.7975 114.208ZM70.4375 112.736C71.6375 112.736 72.4055 112.016 72.4055 110.8V110.384L70.7575 110.512C69.5415 110.624 69.0775 111.024 69.0775 111.664C69.0775 112.384 69.5575 112.736 70.4375 112.736ZM79.4591 114.208C77.1711 114.208 75.7471 112.528 75.7471 110.08C75.7471 107.616 77.1871 105.856 79.5711 105.856C80.6751 105.856 81.6511 106.32 82.1471 107.104V102.096H84.0831V114H82.2911L82.1631 112.768C81.6831 113.68 80.6591 114.208 79.4591 114.208ZM79.8911 112.416C81.2511 112.416 82.1311 111.44 82.1311 110.016C82.1311 108.592 81.2511 107.6 79.8911 107.6C78.5311 107.6 77.6991 108.608 77.6991 110.016C77.6991 111.424 78.5311 112.416 79.8911 112.416ZM92.7659 102.304V114H90.7179V102.304H92.7659ZM97.0225 114H95.0705V106.096H96.8625L97.0225 107.024C97.4225 106.368 98.2225 105.856 99.3585 105.856C100.559 105.856 101.391 106.448 101.807 107.36C102.207 106.448 103.135 105.856 104.335 105.856C106.255 105.856 107.311 107.008 107.311 108.832V114H105.375V109.344C105.375 108.208 104.767 107.616 103.839 107.616C102.895 107.616 102.175 108.224 102.175 109.52V114H100.223V109.328C100.223 108.224 99.6305 107.632 98.7025 107.632C97.7745 107.632 97.0225 108.24 97.0225 109.52V114ZM111.579 114.208C109.899 114.208 108.875 113.232 108.875 111.744C108.875 110.288 109.931 109.376 111.803 109.232L114.171 109.056V108.88C114.171 107.808 113.531 107.376 112.539 107.376C111.387 107.376 110.747 107.856 110.747 108.688H109.083C109.083 106.976 110.491 105.856 112.635 105.856C114.763 105.856 116.075 107.008 116.075 109.2V114H114.363L114.219 112.832C113.883 113.648 112.811 114.208 111.579 114.208ZM112.219 112.736C113.419 112.736 114.187 112.016 114.187 110.8V110.384L112.539 110.512C111.323 110.624 110.859 111.024 110.859 111.664C110.859 112.384 111.339 112.736 112.219 112.736ZM117.544 109.872C117.544 107.568 119.048 105.84 121.304 105.84C122.488 105.84 123.416 106.336 123.88 107.184L123.992 106.096H125.8V113.6C125.8 116.24 124.216 117.888 121.656 117.888C119.384 117.888 117.832 116.592 117.592 114.48H119.544C119.672 115.504 120.456 116.112 121.656 116.112C123 116.112 123.864 115.264 123.864 113.952V112.64C123.368 113.376 122.392 113.84 121.256 113.84C119.016 113.84 117.544 112.16 117.544 109.872ZM119.512 109.824C119.512 111.152 120.36 112.144 121.64 112.144C122.984 112.144 123.816 111.2 123.816 109.824C123.816 108.48 123 107.552 121.64 107.552C120.344 107.552 119.512 108.528 119.512 109.824ZM131.357 114.208C129.005 114.208 127.357 112.496 127.357 110.048C127.357 107.568 128.973 105.856 131.293 105.856C133.661 105.856 135.165 107.44 135.165 109.904V110.496L129.213 110.512C129.357 111.904 130.093 112.608 131.389 112.608C132.461 112.608 133.165 112.192 133.389 111.44H135.197C134.861 113.168 133.421 114.208 131.357 114.208ZM131.309 107.456C130.157 107.456 129.453 108.08 129.261 109.264H133.229C133.229 108.176 132.477 107.456 131.309 107.456Z" fill="#FF7037"/>
</svg>
