<svg width="60" height="60" viewBox="0 0 60 60" fill="none" xmlns="http://www.w3.org/2000/svg">
<rect width="60" height="60" rx="30" fill="#FFF1EC"/>
<path d="M37.875 28.875H31.125V22.125C31.125 21.8266 31.0065 21.5405 30.7955 21.3295C30.5845 21.1185 30.2984 21 30 21C29.7016 21 29.4155 21.1185 29.2045 21.3295C28.9935 21.5405 28.875 21.8266 28.875 22.125V28.875H22.125C21.8266 28.875 21.5405 28.9935 21.3295 29.2045C21.1185 29.4155 21 29.7016 21 30C21 30.2984 21.1185 30.5845 21.3295 30.7955C21.5405 31.0065 21.8266 31.125 22.125 31.125H28.875V37.875C28.875 38.1734 28.9935 38.4595 29.2045 38.6705C29.4155 38.8815 29.7016 39 30 39C30.2984 39 30.5845 38.8815 30.7955 38.6705C31.0065 38.4595 31.125 38.1734 31.125 37.875V31.125H37.875C38.1734 31.125 38.4595 31.0065 38.6705 30.7955C38.8815 30.5845 39 30.2984 39 30C39 29.7016 38.8815 29.4155 38.6705 29.2045C38.4595 28.9935 38.1734 28.875 37.875 28.875Z" fill="#FF7037"/>
</svg>
