<svg width="24" height="25" viewBox="0 0 24 25" fill="none" xmlns="http://www.w3.org/2000/svg">
<path d="M21.9199 12.1C19.8999 7.41 16.0999 4.5 11.9999 4.5C7.89994 4.5 4.09994 7.41 2.07994 12.1C2.02488 12.2262 1.99646 12.3623 1.99646 12.5C1.99646 12.6377 2.02488 12.7738 2.07994 12.9C4.09994 17.59 7.89994 20.5 11.9999 20.5C16.0999 20.5 19.8999 17.59 21.9199 12.9C21.975 12.7738 22.0034 12.6377 22.0034 12.5C22.0034 12.3623 21.975 12.2262 21.9199 12.1ZM11.9999 18.5C8.82994 18.5 5.82994 16.21 4.09994 12.5C5.82994 8.79 8.82994 6.5 11.9999 6.5C15.1699 6.5 18.1699 8.79 19.8999 12.5C18.1699 16.21 15.1699 18.5 11.9999 18.5ZM11.9999 8.5C11.2088 8.5 10.4355 8.7346 9.77766 9.17412C9.11987 9.61365 8.60718 10.2384 8.30443 10.9693C8.00168 11.7002 7.92246 12.5044 8.0768 13.2804C8.23114 14.0563 8.61211 14.769 9.17152 15.3284C9.73093 15.8878 10.4437 16.2688 11.2196 16.4231C11.9955 16.5775 12.7998 16.4983 13.5307 16.1955C14.2616 15.8928 14.8863 15.3801 15.3258 14.7223C15.7653 14.0645 15.9999 13.2911 15.9999 12.5C15.9999 11.4391 15.5785 10.4217 14.8284 9.67157C14.0782 8.92143 13.0608 8.5 11.9999 8.5ZM11.9999 14.5C11.6044 14.5 11.2177 14.3827 10.8888 14.1629C10.5599 13.9432 10.3036 13.6308 10.1522 13.2654C10.0008 12.8999 9.9612 12.4978 10.0384 12.1098C10.1155 11.7219 10.306 11.3655 10.5857 11.0858C10.8654 10.8061 11.2218 10.6156 11.6098 10.5384C11.9977 10.4613 12.3999 10.5009 12.7653 10.6522C13.1308 10.8036 13.4431 11.06 13.6629 11.3889C13.8826 11.7178 13.9999 12.1044 13.9999 12.5C13.9999 13.0304 13.7892 13.5391 13.4142 13.9142C13.0391 14.2893 12.5304 14.5 11.9999 14.5Z" fill="#FF7037"/>
</svg>
