<svg width="20" height="20" viewBox="0 0 20 20" fill="none" xmlns="http://www.w3.org/2000/svg">
<path d="M3.33203 9.99984C3.33203 10.2209 3.41983 10.4328 3.57611 10.5891C3.73239 10.7454 3.94435 10.8332 4.16536 10.8332H10.4904L8.5737 12.7415C8.49559 12.819 8.4336 12.9111 8.39129 13.0127C8.34898 13.1142 8.3272 13.2232 8.3272 13.3332C8.3272 13.4432 8.34898 13.5521 8.39129 13.6537C8.4336 13.7552 8.49559 13.8474 8.5737 13.9248C8.65117 14.0029 8.74333 14.0649 8.84488 14.1072C8.94643 14.1496 9.05535 14.1713 9.16536 14.1713C9.27537 14.1713 9.3843 14.1496 9.48585 14.1072C9.58739 14.0649 9.67956 14.0029 9.75703 13.9248L13.0904 10.5915C13.1662 10.5123 13.2257 10.4188 13.2654 10.3165C13.3487 10.1136 13.3487 9.88605 13.2654 9.68317C13.2257 9.58088 13.1662 9.48742 13.0904 9.40817L9.75703 6.07484C9.67933 5.99714 9.58709 5.9355 9.48557 5.89345C9.38405 5.8514 9.27525 5.82976 9.16536 5.82976C9.05548 5.82976 8.94667 5.8514 8.84516 5.89345C8.74364 5.9355 8.6514 5.99714 8.5737 6.07484C8.496 6.15254 8.43436 6.24478 8.39231 6.3463C8.35026 6.44781 8.32862 6.55662 8.32862 6.6665C8.32862 6.77639 8.35026 6.88519 8.39231 6.98671C8.43436 7.08823 8.496 7.18047 8.5737 7.25817L10.4904 9.1665H4.16536C3.94435 9.1665 3.73239 9.2543 3.57611 9.41058C3.41983 9.56686 3.33203 9.77882 3.33203 9.99984ZM14.1654 1.6665H5.83203C5.16899 1.6665 4.53311 1.9299 4.06426 2.39874C3.59542 2.86758 3.33203 3.50346 3.33203 4.1665V6.6665C3.33203 6.88752 3.41983 7.09948 3.57611 7.25576C3.73239 7.41204 3.94435 7.49984 4.16536 7.49984C4.38638 7.49984 4.59834 7.41204 4.75462 7.25576C4.9109 7.09948 4.9987 6.88752 4.9987 6.6665V4.1665C4.9987 3.94549 5.0865 3.73353 5.24278 3.57725C5.39906 3.42097 5.61102 3.33317 5.83203 3.33317H14.1654C14.3864 3.33317 14.5983 3.42097 14.7546 3.57725C14.9109 3.73353 14.9987 3.94549 14.9987 4.1665V15.8332C14.9987 16.0542 14.9109 16.2661 14.7546 16.4224C14.5983 16.5787 14.3864 16.6665 14.1654 16.6665H5.83203C5.61102 16.6665 5.39906 16.5787 5.24278 16.4224C5.0865 16.2661 4.9987 16.0542 4.9987 15.8332V13.3332C4.9987 13.1122 4.9109 12.9002 4.75462 12.7439C4.59834 12.5876 4.38638 12.4998 4.16536 12.4998C3.94435 12.4998 3.73239 12.5876 3.57611 12.7439C3.41983 12.9002 3.33203 13.1122 3.33203 13.3332V15.8332C3.33203 16.4962 3.59542 17.1321 4.06426 17.6009C4.53311 18.0698 5.16899 18.3332 5.83203 18.3332H14.1654C14.8284 18.3332 15.4643 18.0698 15.9331 17.6009C16.402 17.1321 16.6654 16.4962 16.6654 15.8332V4.1665C16.6654 3.50346 16.402 2.86758 15.9331 2.39874C15.4643 1.9299 14.8284 1.6665 14.1654 1.6665Z" fill="#3A3B46"/>
</svg>
