<svg width="24" height="24" viewBox="0 0 24 24" fill="none" xmlns="http://www.w3.org/2000/svg">
<path fill-rule="evenodd" clip-rule="evenodd" d="M11 4C7.13401 4 4 7.13401 4 11C4 14.866 7.13401 18 11 18C12.8844 18 14.5949 17.2554 15.8533 16.0443C15.8806 16.0085 15.9106 15.9741 15.9433 15.9413C15.9759 15.9087 16.0103 15.8788 16.046 15.8516C17.2561 14.5934 18 12.8836 18 11C18 7.13401 14.866 4 11 4ZM18.0328 16.6166C19.2639 15.0771 20 13.1245 20 11C20 6.02944 15.9706 2 11 2C6.02944 2 2 6.02944 2 11C2 15.9706 6.02944 20 11 20C13.1255 20 15.0789 19.2632 16.6188 18.031L20.2933 21.7055C20.6838 22.0961 21.317 22.0961 21.7075 21.7055C22.098 21.315 22.098 20.6819 21.7075 20.2913L18.0328 16.6166Z" fill="#AEB1C4"/>
</svg>
