<svg width="51" height="50" viewBox="0 0 51 50" fill="none" xmlns="http://www.w3.org/2000/svg">
<path d="M25.5 0C20.5555 0 15.722 1.46622 11.6108 4.21326C7.49953 6.9603 4.29521 10.8648 2.40302 15.4329C0.510832 20.0011 0.0157487 25.0277 0.980379 29.8773C1.94501 34.7268 4.32603 39.1814 7.82234 42.6777C11.3187 46.174 15.7732 48.555 20.6228 49.5196C25.4723 50.4843 30.4989 49.9892 35.0671 48.097C39.6353 46.2048 43.5397 43.0005 46.2867 38.8893C49.0338 34.778 50.5 29.9445 50.5 25C50.5 21.717 49.8534 18.4661 48.597 15.4329C47.3406 12.3998 45.4991 9.6438 43.1777 7.32233C40.8562 5.00087 38.1002 3.15938 35.0671 1.90301C32.034 0.646644 28.7831 0 25.5 0ZM25.5 45C21.5444 45 17.6776 43.827 14.3886 41.6294C11.0996 39.4318 8.53617 36.3082 7.02242 32.6537C5.50867 28.9991 5.1126 24.9778 5.88431 21.0982C6.65601 17.2186 8.56083 13.6549 11.3579 10.8579C14.1549 8.06081 17.7186 6.156 21.5982 5.38429C25.4778 4.61259 29.4992 5.00866 33.1537 6.52241C36.8082 8.03616 39.9318 10.5996 42.1294 13.8886C44.327 17.1776 45.5 21.0444 45.5 25C45.5 30.3043 43.3929 35.3914 39.6421 39.1421C35.8914 42.8929 30.8043 45 25.5 45ZM35.5 22.5H28V15C28 14.337 27.7366 13.7011 27.2678 13.2322C26.7989 12.7634 26.1631 12.5 25.5 12.5C24.837 12.5 24.2011 12.7634 23.7322 13.2322C23.2634 13.7011 23 14.337 23 15V22.5H15.5C14.837 22.5 14.2011 22.7634 13.7322 23.2322C13.2634 23.7011 13 24.337 13 25C13 25.663 13.2634 26.2989 13.7322 26.7678C14.2011 27.2366 14.837 27.5 15.5 27.5H23V35C23 35.663 23.2634 36.2989 23.7322 36.7678C24.2011 37.2366 24.837 37.5 25.5 37.5C26.1631 37.5 26.7989 37.2366 27.2678 36.7678C27.7366 36.2989 28 35.663 28 35V27.5H35.5C36.1631 27.5 36.7989 27.2366 37.2678 26.7678C37.7366 26.2989 38 25.663 38 25C38 24.337 37.7366 23.7011 37.2678 23.2322C36.7989 22.7634 36.1631 22.5 35.5 22.5Z" fill="#FF7037"/>
</svg>
