<svg
    width="20"
    height="20"
    viewBox="0 0 20 20"
    fill="none"
    xmlns="http://www.w3.org/2000/svg"
  >
    <path
      d="M13.5414 10.3148C12.7644 9.07404 11.441 8.33317 10.0013 8.33317C8.56171 8.33317 7.23821 9.07404 6.46131 10.3148L4.58896 13.3046C4.2783 13.8007 4.13497 14.3737 4.17436 14.9615C4.21375 15.5495 4.43231 16.097 4.80633 16.5451C5.18062 16.9931 5.67519 17.2992 6.23655 17.4305C6.79792 17.5617 7.37338 17.5058 7.90062 17.2686L7.935 17.2529C9.2618 16.6675 10.7783 16.6728 12.1018 17.2686C12.4432 17.4222 12.8048 17.4998 13.1697 17.4998C13.3681 17.4998 13.5677 17.4768 13.7655 17.4307C14.3268 17.2994 14.8214 16.9933 15.1958 16.5454C15.57 16.0974 15.7887 15.5497 15.8282 14.9618C15.8677 14.3737 15.7244 13.8007 15.4137 13.3045L13.5414 10.3148ZM14.4266 15.8719C13.9503 16.4418 13.1799 16.622 12.5093 16.3202C11.7122 15.9613 10.8567 15.782 10.0009 15.782C9.14587 15.782 8.29045 15.9612 7.49392 16.3196L7.47126 16.3299C6.80582 16.6179 6.04671 16.4355 5.57572 15.8719C5.09999 15.3019 5.04585 14.4949 5.44108 13.8637L7.31356 10.8739C7.90352 9.93184 8.9082 9.36937 10.0013 9.36937C11.0944 9.36937 12.0992 9.93184 12.6893 10.8739L14.5615 13.8636C14.9569 14.4951 14.9026 15.3022 14.4266 15.8719Z"
      fill="#AEB1C3"
    />
    <path
      d="M4.58266 10.7003C5.1065 10.4803 5.50446 10.0187 5.70331 9.40059C5.89238 8.81239 5.87689 8.14832 5.65945 7.53058C5.44189 6.91325 5.04616 6.40931 4.54525 6.11141C4.01881 5.79862 3.44058 5.74768 2.91761 5.96809C1.86547 6.41039 1.38265 7.832 1.84144 9.13778C2.20793 10.1771 3.06269 10.8332 3.92688 10.8332C4.14754 10.8332 4.36882 10.7904 4.58266 10.7003ZM2.72978 8.76389C2.45944 7.99443 2.69695 7.17592 3.25956 6.9394C3.36116 6.89659 3.46858 6.87532 3.57823 6.87532C3.74747 6.87532 3.92229 6.92585 4.09054 7.02596C4.3931 7.20573 4.63482 7.51785 4.77111 7.90461C4.90727 8.29164 4.91942 8.70022 4.80518 9.05528C4.70049 9.38068 4.50015 9.61991 4.2412 9.72869C3.67933 9.96549 3.00099 9.53267 2.72978 8.76389Z"
      fill="#AEB1C3"
    />
    <path
      d="M8.33451 7.49984C9.71306 7.49984 10.8346 6.19158 10.8346 4.5835C10.8346 2.97503 9.71306 1.6665 8.33451 1.6665C6.95608 1.6665 5.83464 2.97503 5.83464 4.5835C5.83464 6.19158 6.95608 7.49984 8.33451 7.49984ZM8.33451 2.68799C9.16286 2.68799 9.83695 3.53836 9.83695 4.5835C9.83695 5.62825 9.16286 6.47836 8.33451 6.47836C7.50615 6.47836 6.83232 5.62825 6.83232 4.5835C6.83232 3.53836 7.50615 2.68799 8.33451 2.68799Z"
      fill="#AEB1C3"
    />
    <path
      d="M13.2836 8.23244C13.5111 8.3006 13.7433 8.33317 13.9744 8.33317C15.053 8.33317 16.1041 7.62454 16.5051 6.53551C16.7361 5.90862 16.7209 5.24577 16.4624 4.66919C16.1918 4.06569 15.6904 3.62756 15.0505 3.43541C14.4105 3.24351 13.7179 3.32349 13.1009 3.66076C12.5115 3.98307 12.0599 4.5057 11.8293 5.13259C11.3424 6.45503 11.9948 7.84562 13.2836 8.23244ZM12.845 5.43729C12.9956 5.02796 13.2834 4.69069 13.6555 4.48722C13.9998 4.29896 14.3754 4.25105 14.7129 4.35228C15.0503 4.45364 15.3192 4.69484 15.4702 5.03161C15.6333 5.39554 15.6403 5.82135 15.4894 6.23068C15.1887 7.04758 14.3506 7.53425 13.6213 7.31556C12.8925 7.09675 12.5443 6.2542 12.845 5.43729Z"
      fill="#AEB1C3"
    />
    <path
      d="M18.4248 8.73883C17.5439 7.98603 16.2261 8.3119 15.4874 9.46616C14.7494 10.621 14.8648 12.1735 15.7444 12.9268C16.0652 13.2018 16.4442 13.3332 16.8322 13.3332C17.5083 13.3332 18.2117 12.9339 18.6818 12.1998C19.4198 11.045 19.3045 9.49247 18.4248 8.73883ZM17.9388 11.5635C17.5026 12.2446 16.7651 12.4705 16.2945 12.0673C15.8243 11.6646 15.7957 10.7829 16.2307 10.1022C16.5198 9.65032 16.9421 9.39893 17.3314 9.39893C17.5283 9.39893 17.7167 9.46324 17.875 9.59868C18.3449 10.0018 18.3734 10.8832 17.9388 11.5635Z"
      fill="#AEB1C3"
    />
    <path
      fill-rule="evenodd"
      clip-rule="evenodd"
      d="M4.58776 13.3046L6.46011 10.3148C7.23701 9.07405 8.56052 8.33317 10.0001 8.33317C11.4398 8.33317 12.7632 9.07405 13.5402 10.3148L15.4125 13.3045C15.7232 13.8007 15.8665 14.3737 15.827 14.9618C15.7875 15.5497 15.5688 16.0974 15.1946 16.5454C14.8202 16.9933 14.3257 17.2994 13.7643 17.4307C13.5665 17.4768 13.3669 17.4998 13.1685 17.4998C12.8036 17.4998 12.442 17.4222 12.1006 17.2686C10.7771 16.6728 9.26061 16.6675 7.93381 17.2529L7.89942 17.2686C7.37218 17.5058 6.79672 17.5617 6.23536 17.4305C5.67399 17.2992 5.17943 16.9931 4.80514 16.5451C4.43112 16.097 4.21255 15.5495 4.17316 14.9615C4.13377 14.3737 4.27711 13.8007 4.58776 13.3046ZM8.03593 17.4811C8.03553 17.4813 8.03513 17.4815 8.03472 17.4817L8.00199 17.4966C7.42487 17.7562 6.79338 17.8177 6.17846 17.674C5.56362 17.5301 5.02188 17.1944 4.61329 16.7054C4.20509 16.2163 3.96661 15.6184 3.92372 14.9782C3.88084 14.3383 4.03709 13.713 4.37587 13.1719L6.24822 10.1821C7.06988 8.86988 8.47263 8.08317 10.0001 8.08317C11.5277 8.08317 12.9303 8.86988 13.7521 10.1821L14.8601 11.9513C14.6264 11.119 14.7668 10.1276 15.2755 9.33154C16.0689 8.09192 17.5545 7.66728 18.586 8.54878C19.5838 9.40351 19.6784 11.1028 18.8913 12.3344C18.3837 13.1271 17.607 13.5832 16.831 13.5832C16.3925 13.5832 15.9632 13.4365 15.6005 13.1335L15.6244 13.1718C15.9632 13.7129 16.1195 14.3383 16.0764 14.9786C16.0334 15.6187 15.7949 16.2167 15.3865 16.7056C14.9778 17.1946 14.4361 17.5304 13.8212 17.6741C13.6051 17.7245 13.3864 17.7498 13.1685 17.7498C12.7678 17.7498 12.3712 17.6645 11.998 17.4965C10.7396 16.9301 9.29758 16.9249 8.03593 17.4811ZM15.7432 12.9268C16.064 13.2018 16.443 13.3332 16.831 13.3332C17.5071 13.3332 18.2105 12.9339 18.6806 12.1998C19.4186 11.045 19.3033 9.49247 18.4236 8.73883C17.5427 7.98603 16.2249 8.3119 15.4862 9.46616C14.7482 10.621 14.8636 12.1735 15.7432 12.9268ZM7.49273 16.3196C8.28925 15.9612 9.14467 15.782 9.99969 15.782C10.8555 15.782 11.7111 15.9613 12.5081 16.3202C13.1787 16.622 13.9491 16.4418 14.4254 15.8719C14.9014 15.3022 14.9557 14.4951 14.5603 13.8636L12.6881 10.8739C12.098 9.93184 11.0932 9.36937 10.0001 9.36937C8.907 9.36937 7.90232 9.93184 7.31237 10.8739L5.43988 13.8637C5.04465 14.4949 5.0988 15.3019 5.57453 15.8719C6.04551 16.4355 6.80463 16.6179 7.47007 16.3299L7.49273 16.3196ZM7.36898 16.1012L7.3897 16.0918C8.21891 15.7187 9.10977 15.532 9.99969 15.532C10.8904 15.532 11.781 15.7186 12.6107 16.0922C13.1776 16.3473 13.8281 16.1967 14.2335 15.7116C14.6398 15.2253 14.6866 14.5365 14.3484 13.9962L12.4762 11.0066C12.4762 11.0066 12.4762 11.0066 12.4762 11.0066C11.9309 10.136 11.0053 9.61937 10.0001 9.61937C8.9949 9.61937 8.06945 10.136 7.52425 11.0066L5.65178 13.9964C5.65177 13.9964 5.65178 13.9964 5.65178 13.9964C5.31372 14.5363 5.36032 15.2251 5.76646 15.7117C6.16699 16.1908 6.80705 16.3435 7.36898 16.1012ZM5.70212 9.40059C5.50326 10.0187 5.10531 10.4803 4.58147 10.7003C4.36762 10.7904 4.14634 10.8332 3.92568 10.8332C3.0615 10.8332 2.20673 10.1771 1.84024 9.13778C1.38145 7.832 1.86428 6.41039 2.91641 5.96809C3.43938 5.74768 4.01761 5.79862 4.54405 6.11141C5.04497 6.40931 5.44069 6.91325 5.65826 7.53058C5.8757 8.14832 5.89118 8.81239 5.70212 9.40059ZM2.81953 5.73762C3.42206 5.48376 4.08343 5.54693 4.67175 5.89649C5.22918 6.22799 5.65956 6.78214 5.89404 7.44748C6.12846 8.11346 6.14693 8.83371 5.94012 9.47709C5.72248 10.1536 5.2794 10.6783 4.67827 10.9308C4.43327 11.0339 4.17903 11.0832 3.92568 11.0832C2.93251 11.0832 1.99792 10.3367 1.60447 9.22092C1.11616 7.83112 1.60931 6.24638 2.81953 5.73762ZM3.25837 6.9394C2.69575 7.17592 2.45824 7.99443 2.72859 8.76389C2.9998 9.53267 3.67813 9.96549 4.24001 9.72869C4.49895 9.61991 4.69929 9.38068 4.80399 9.05528C4.91822 8.70022 4.90608 8.29164 4.76992 7.90461C4.63363 7.51785 4.39191 7.20573 4.08935 7.02596C3.9211 6.92585 3.74628 6.87532 3.57703 6.87532C3.46738 6.87532 3.35997 6.89659 3.25837 6.9394ZM4.53408 7.98758C4.41387 7.6465 4.20569 7.38588 3.96165 7.24089C3.82704 7.16079 3.69577 7.12532 3.57703 7.12532C3.50014 7.12532 3.42578 7.14014 3.35544 7.16978C3.16138 7.25137 3.0021 7.44286 2.9212 7.72149C2.84072 7.99874 2.84547 8.34234 2.96443 8.68096C3.08385 9.01932 3.28885 9.27163 3.5098 9.41265C3.72948 9.55286 3.95297 9.57837 4.14292 9.49832C4.32013 9.42387 4.47835 9.25115 4.566 8.97871C4.66181 8.6809 4.65405 8.32857 4.53408 7.98758ZM13.2105 8.47189C11.7724 8.04025 11.061 6.49252 11.5935 5.04622C11.8451 4.36221 12.3377 3.79253 12.9798 3.44141C13.6521 3.07394 14.4134 2.98376 15.1211 3.19594C15.8298 3.40872 16.3887 3.8964 16.6893 4.56692C16.9762 5.20681 16.9907 5.9376 16.7385 6.62191C16.3015 7.80864 15.1572 8.58317 13.9732 8.58317C13.7185 8.58317 13.462 8.54723 13.2105 8.47189ZM16.5039 6.53551C16.7349 5.90862 16.7197 5.24577 16.4612 4.66919C16.1906 4.06569 15.6893 3.62756 15.0493 3.43541C14.4093 3.24351 13.7168 3.32349 13.0997 3.66076C12.5103 3.98307 12.0587 4.50571 11.8281 5.13259C11.3412 6.45503 11.9936 7.84562 13.2824 8.23244C13.5099 8.3006 13.7421 8.33317 13.9732 8.33317C15.0518 8.33317 16.1029 7.62454 16.5039 6.53551ZM13.0784 5.52367C12.8151 6.23892 13.1332 6.9083 13.6919 7.0761C14.2681 7.24887 14.9882 6.86507 15.2536 6.1443C15.3842 5.79008 15.3747 5.43237 15.2409 5.13387C15.1179 4.85973 14.904 4.67108 14.6398 4.59171C14.3738 4.51199 14.0671 4.54643 13.7743 4.70656C13.4569 4.88015 13.2088 5.16937 13.0784 5.52367ZM14.7117 4.35228C15.0491 4.45364 15.318 4.69484 15.469 5.03161C15.6321 5.39554 15.6391 5.82135 15.4882 6.23068C15.1875 7.04758 14.3494 7.53425 13.6201 7.31556C12.8913 7.09675 12.5431 6.2542 12.8438 5.43729C12.9944 5.02796 13.2822 4.69069 13.6543 4.48722C13.9986 4.29896 14.3742 4.25105 14.7117 4.35228ZM16.2934 12.0673C16.764 12.4705 17.5014 12.2446 17.9376 11.5635C18.3722 10.8832 18.3437 10.0018 17.8738 9.59868C17.7155 9.46324 17.5271 9.39893 17.3302 9.39893C16.941 9.39893 16.5186 9.65032 16.2295 10.1022C15.7945 10.7829 15.8231 11.6646 16.2934 12.0673ZM16.44 10.2369C16.2494 10.5353 16.1619 10.8762 16.1718 11.1808C16.1818 11.4879 16.2885 11.734 16.456 11.8774C16.6172 12.0156 16.8272 12.0528 17.0552 11.983C17.2873 11.9119 17.5356 11.7278 17.7271 11.4287C17.9175 11.1305 18.0049 10.7898 17.9951 10.4853C17.9851 10.1782 17.8785 9.93211 17.7111 9.78847C17.6001 9.69363 17.4701 9.64893 17.3302 9.64893C17.0474 9.64893 16.696 9.83695 16.44 10.2369ZM11.0834 4.5835C11.0834 6.29215 9.88467 7.74984 8.33331 7.74984C6.78206 7.74984 5.58344 6.29212 5.58344 4.5835C5.58344 2.87454 6.78201 1.4165 8.33331 1.4165C9.88472 1.4165 11.0834 2.87452 11.0834 4.5835ZM9.58575 4.5835C9.58575 3.61914 8.97255 2.93799 8.33331 2.93799C7.69412 2.93799 7.08113 3.61908 7.08113 4.5835C7.08113 5.54744 7.69405 6.22836 8.33331 6.22836C8.97262 6.22836 9.58575 5.54738 9.58575 4.5835ZM10.8334 4.5835C10.8334 6.19157 9.71187 7.49984 8.33331 7.49984C6.95488 7.49984 5.83344 6.19157 5.83344 4.5835C5.83344 2.97503 6.95488 1.6665 8.33331 1.6665C9.71187 1.6665 10.8334 2.97503 10.8334 4.5835ZM9.83575 4.5835C9.83575 3.53836 9.16167 2.68799 8.33331 2.68799C7.50496 2.68799 6.83113 3.53836 6.83113 4.5835C6.83113 5.62825 7.50496 6.47836 8.33331 6.47836C9.16167 6.47836 9.83575 5.62825 9.83575 4.5835Z"
      fill="#AEB1C3"
    />
  </svg>