<svg width="20" height="20" viewBox="0 0 20 20" fill="none" xmlns="http://www.w3.org/2000/svg">
<path d="M3.09316 13.575C3.01391 13.4991 2.92046 13.4397 2.81816 13.4C2.61528 13.3167 2.38771 13.3167 2.18483 13.4C2.08254 13.4397 1.98908 13.4991 1.90983 13.575C1.83396 13.6543 1.77449 13.7477 1.73483 13.85C1.67101 14.0018 1.65358 14.169 1.68472 14.3307C1.71587 14.4923 1.7942 14.6411 1.90983 14.7583C1.99083 14.8319 2.08384 14.8911 2.18483 14.9333C2.28458 14.9774 2.39244 15.0002 2.5015 15.0002C2.61055 15.0002 2.71841 14.9774 2.81816 14.9333C2.91915 14.8911 3.01216 14.8319 3.09316 14.7583C3.20879 14.6411 3.28712 14.4923 3.31827 14.3307C3.34941 14.169 3.33198 14.0018 3.26816 13.85C3.2285 13.7477 3.16903 13.6543 3.09316 13.575ZM5.83483 6.66667H17.5015C17.7225 6.66667 17.9345 6.57887 18.0908 6.42259C18.247 6.26631 18.3348 6.05435 18.3348 5.83333C18.3348 5.61232 18.247 5.40036 18.0908 5.24408C17.9345 5.0878 17.7225 5 17.5015 5H5.83483C5.61382 5 5.40185 5.0878 5.24557 5.24408C5.08929 5.40036 5.0015 5.61232 5.0015 5.83333C5.0015 6.05435 5.08929 6.26631 5.24557 6.42259C5.40185 6.57887 5.61382 6.66667 5.83483 6.66667ZM3.09316 9.40833C2.97598 9.2927 2.82717 9.21437 2.66551 9.18323C2.50385 9.15208 2.33659 9.16952 2.18483 9.23333C2.08384 9.27553 1.99083 9.33472 1.90983 9.40833C1.83396 9.48759 1.77449 9.58104 1.73483 9.68333C1.69074 9.78308 1.66797 9.89094 1.66797 10C1.66797 10.1091 1.69074 10.2169 1.73483 10.3167C1.77703 10.4177 1.83622 10.5107 1.90983 10.5917C1.99083 10.6653 2.08384 10.7245 2.18483 10.7667C2.28458 10.8108 2.39244 10.8335 2.5015 10.8335C2.61055 10.8335 2.71841 10.8108 2.81816 10.7667C2.91915 10.7245 3.01216 10.6653 3.09316 10.5917C3.16677 10.5107 3.22596 10.4177 3.26816 10.3167C3.31225 10.2169 3.33502 10.1091 3.33502 10C3.33502 9.89094 3.31225 9.78308 3.26816 9.68333C3.2285 9.58104 3.16903 9.48759 3.09316 9.40833ZM17.5015 9.16667H5.83483C5.61382 9.16667 5.40185 9.25446 5.24557 9.41074C5.08929 9.56702 5.0015 9.77899 5.0015 10C5.0015 10.221 5.08929 10.433 5.24557 10.5893C5.40185 10.7455 5.61382 10.8333 5.83483 10.8333H17.5015C17.7225 10.8333 17.9345 10.7455 18.0908 10.5893C18.247 10.433 18.3348 10.221 18.3348 10C18.3348 9.77899 18.247 9.56702 18.0908 9.41074C17.9345 9.25446 17.7225 9.16667 17.5015 9.16667ZM3.09316 5.24167C3.01391 5.1658 2.92046 5.10633 2.81816 5.06667C2.6664 5.00285 2.49914 4.98542 2.33748 5.01656C2.17583 5.04771 2.02702 5.12604 1.90983 5.24167C1.83622 5.32267 1.77703 5.41568 1.73483 5.51667C1.69074 5.61642 1.66797 5.72427 1.66797 5.83333C1.66797 5.94239 1.69074 6.05025 1.73483 6.15C1.77703 6.25099 1.83622 6.344 1.90983 6.425C1.99083 6.49861 2.08384 6.5578 2.18483 6.6C2.33659 6.66382 2.50385 6.68125 2.66551 6.65011C2.82717 6.61896 2.97598 6.54063 3.09316 6.425C3.16677 6.344 3.22596 6.25099 3.26816 6.15C3.31225 6.05025 3.33502 5.94239 3.33502 5.83333C3.33502 5.72427 3.31225 5.61642 3.26816 5.51667C3.22596 5.41568 3.16677 5.32267 3.09316 5.24167ZM17.5015 13.3333H5.83483C5.61382 13.3333 5.40185 13.4211 5.24557 13.5774C5.08929 13.7337 5.0015 13.9457 5.0015 14.1667C5.0015 14.3877 5.08929 14.5996 5.24557 14.7559C5.40185 14.9122 5.61382 15 5.83483 15H17.5015C17.7225 15 17.9345 14.9122 18.0908 14.7559C18.247 14.5996 18.3348 14.3877 18.3348 14.1667C18.3348 13.9457 18.247 13.7337 18.0908 13.5774C17.9345 13.4211 17.7225 13.3333 17.5015 13.3333Z" fill="#AEB1C3"/>
</svg>
