<svg width="32" height="32" viewBox="0 0 32 32" fill="none" xmlns="http://www.w3.org/2000/svg">
<rect width="32" height="32" rx="16" fill="#1CCD83"/>
<path d="M22.7856 10.9757C22.6915 10.8779 22.5796 10.8002 22.4563 10.7472C22.333 10.6943 22.2007 10.667 22.0671 10.667C21.9335 10.667 21.8012 10.6943 21.6779 10.7472C21.5546 10.8002 21.4427 10.8779 21.3486 10.9757L13.8093 18.7605L10.6418 15.4838C10.5442 15.3865 10.4288 15.31 10.3025 15.2586C10.1761 15.2073 10.0412 15.1821 9.90544 15.1845C9.76965 15.1869 9.63565 15.2169 9.5111 15.2727C9.38655 15.3286 9.27388 15.4091 9.17952 15.5099C9.08516 15.6106 9.01097 15.7295 8.96118 15.8598C8.91139 15.9901 8.88697 16.1292 8.88931 16.2692C8.89166 16.4092 8.92074 16.5474 8.97487 16.6759C9.029 16.8043 9.10714 16.9205 9.20482 17.0178L13.0908 21.025C13.1849 21.1228 13.2968 21.2004 13.4201 21.2534C13.5435 21.3064 13.6757 21.3337 13.8093 21.3337C13.9429 21.3337 14.0752 21.3064 14.1985 21.2534C14.3218 21.2004 14.4338 21.1228 14.5278 21.025L22.7856 12.5097C22.8883 12.412 22.9703 12.2934 23.0264 12.1613C23.0824 12.0293 23.1114 11.8868 23.1114 11.7427C23.1114 11.5986 23.0824 11.456 23.0264 11.324C22.9703 11.192 22.8883 11.0734 22.7856 10.9757Z" fill="white"/>
</svg>
