<svg width="210" height="248" viewBox="0 0 210 248" fill="none" xmlns="http://www.w3.org/2000/svg">
<path d="M155.974 24.766C155.809 24.8904 155.694 25.0635 155.551 25.2096C129.639 -6.64394 95.2947 -4.15854 74.1122 11.46C60.2919 21.6498 52.8232 37.4146 51.3908 50.7681C37.9952 52.1979 22.1845 59.6423 11.9639 73.4209C-3.70188 94.5396 -6.1949 128.781 25.7566 154.616C25.6101 154.758 25.4365 154.874 25.3117 155.038C15.7862 167.558 11.515 196.625 31.1229 216.567C60.0638 246.001 89.8093 234.631 112.41 242.13C152.476 255.423 182.455 243.565 212.866 212.392L213.505 211.755C244.771 181.436 256.666 151.547 243.333 111.602C235.811 89.0695 247.216 59.4136 217.693 30.5599C197.69 11.0109 168.534 15.2711 155.976 24.7642L155.974 24.766Z" fill="#FFCA62"/>
<path d="M105.617 182.785C105.707 168.012 91.1681 155.976 73.1431 155.904C55.1182 155.831 40.4329 167.749 40.3426 182.523C40.2523 197.297 54.7913 209.332 72.8163 209.404C90.8412 209.477 105.527 197.559 105.617 182.785Z" fill="white"/>
<path d="M87.0043 121.706C93.5187 108.423 85.675 91.2776 69.4848 83.4106C53.2947 75.5435 34.8891 79.9341 28.3747 93.2172C21.8603 106.5 29.704 123.646 45.8942 131.513C62.0843 139.38 80.4899 134.989 87.0043 121.706Z" fill="white"/>
<path d="M210.531 72.1454C210.458 54.1747 198.386 39.6795 183.568 39.7695C168.75 39.8594 156.796 54.5005 156.868 72.4711C156.941 90.4418 169.013 104.937 183.831 104.847C198.65 104.757 210.603 90.1161 210.531 72.1454Z" fill="white"/>
<path d="M132.367 45.2872C124.477 29.1458 107.279 21.3256 93.956 27.8204C80.6327 34.3151 76.2288 52.6653 84.1195 68.8067C92.0103 84.948 109.208 92.7682 122.531 86.2735C135.854 79.7787 140.258 61.4285 132.367 45.2872Z" fill="white"/>
<path d="M194.915 116.967C182.416 111.124 174.279 115.997 156.909 111.592C146.152 108.864 125.184 93.1899 109.488 108.695C93.9365 124.34 109.658 145.248 112.394 155.972C116.812 173.291 111.925 181.403 117.785 193.864C121.004 200.709 127.027 203.641 132.566 205.012C142.132 207.382 155.996 200.882 163.841 185.98C167.705 178.64 172.731 173.204 173.44 172.454C174.194 171.745 179.646 166.735 187.007 162.884C201.954 155.063 208.472 141.243 206.097 131.704C204.72 126.179 201.78 120.176 194.915 116.967Z" fill="white"/>
</svg>
