<svg width="120" height="84" viewBox="0 0 120 84" fill="none" xmlns="http://www.w3.org/2000/svg">
<path d="M89.0311 -43.5622C88.9367 -43.491 88.8703 -43.3921 88.7884 -43.3087C73.9354 -61.5107 54.2484 -60.0905 42.1061 -51.1656C34.1841 -45.3428 29.9028 -36.3344 29.0818 -28.7038C21.4031 -27.8868 12.3401 -23.6329 6.48139 -15.7594C-2.49857 -3.69154 -3.92762 15.8747 14.3877 30.6377C14.3037 30.7192 14.2042 30.7852 14.1326 30.8789C8.67243 38.0334 6.22406 54.6429 17.4638 66.0384C34.0533 82.8581 51.1041 76.361 64.0593 80.646C87.0258 88.2419 104.211 81.4656 121.643 63.6527L122.009 63.289C139.932 45.9636 146.75 28.8842 139.107 6.05853C134.796 -6.81728 141.333 -23.7635 124.41 -40.2513C112.944 -51.4222 96.2308 -48.9878 89.0321 -43.5632L89.0311 -43.5622Z" fill="#FFCA62"/>
<path d="M60.1653 46.7347C60.217 38.2925 51.883 31.4152 41.5507 31.3738C31.2184 31.3323 22.8004 38.1425 22.7487 46.5847C22.6969 55.0268 31.031 61.9041 41.3633 61.9456C51.6956 61.987 60.1135 55.1768 60.1653 46.7347Z" fill="white"/>
<path d="M49.4962 11.8323C53.2304 4.24192 48.7342 -5.55554 39.4536 -10.051C30.1731 -14.5464 19.6226 -12.0375 15.8884 -4.44717C12.1542 3.14317 16.6504 12.9406 25.931 17.4361C35.2115 21.9315 45.762 19.4226 49.4962 11.8323Z" fill="white"/>
<path d="M120.304 -16.4882C120.263 -26.7572 113.343 -35.0401 104.849 -34.9887C96.3544 -34.9373 89.5022 -26.571 89.5438 -16.3021C89.5855 -6.03312 96.5052 2.24984 104.999 2.19844C113.494 2.14704 120.346 -6.21925 120.304 -16.4882Z" fill="white"/>
<path d="M75.4992 -31.8358C70.9761 -41.0594 61.1182 -45.5281 53.481 -41.8168C45.8439 -38.1055 43.3194 -27.6197 47.8426 -18.3961C52.3657 -9.17241 62.2236 -4.70375 69.8608 -8.41502C77.498 -12.1263 80.0224 -22.6121 75.4992 -31.8358Z" fill="white"/>
<path d="M111.353 9.12406C104.188 5.78546 99.524 8.5699 89.5668 6.05261C83.4009 4.49405 71.3818 -4.46278 62.3844 4.39711C53.4699 13.3372 62.4819 25.2847 64.0501 31.4129C66.5828 41.309 63.7812 45.9447 67.1404 53.0654C68.9853 56.9767 72.4382 58.6523 75.6133 59.4356C81.0968 60.79 89.0437 57.0757 93.5409 48.5601C95.7558 44.3657 98.6366 41.2598 99.0431 40.8311C99.4755 40.4261 102.601 37.5629 106.82 35.3627C115.388 30.8931 119.124 22.996 117.762 17.5451C116.973 14.3884 115.288 10.9577 111.353 9.12406Z" fill="white"/>
</svg>
