<svg width="102" height="31" viewBox="0 0 102 31" fill="none" xmlns="http://www.w3.org/2000/svg">
<path d="M3.632 10.904C3.632 6.104 7.088 3 12.368 3C16.912 3 20.464 6.136 20.624 10.296H15.6C15.408 8.568 14.064 7.48 12.112 7.48C9.872 7.48 8.592 8.44 8.592 10.168C8.592 11.512 9.328 12.312 10.96 12.792L14.32 13.784C17.808 14.84 19.472 16.792 19.472 19.896C19.472 24.504 15.984 27.544 10.64 27.544C5.488 27.544 2.16 24.76 2 20.248H7.024C7.12 22.008 8.56 23.064 10.864 23.064C13.168 23.064 14.544 22.072 14.544 20.408C14.544 19.224 14 18.648 12.496 18.2L9.04 17.208C5.584 16.216 3.632 13.944 3.632 10.904Z" fill="#FF7037"/>
<path d="M26.3105 8.568C24.9665 8.568 24.0065 7.576 24.0065 6.264C24.0065 4.6 25.5105 3.096 27.2065 3.096C28.5505 3.096 29.5105 4.088 29.5105 5.4C29.5105 7.032 27.9745 8.568 26.3105 8.568ZM21.0305 27.128L23.5585 11.128H28.3265L25.7985 27.128H21.0305Z" fill="#FF7037"/>
<path d="M37.212 27.128H32.284V15.224H29.244V11.128H32.284V6.168H37.212V11.128H40.252V15.224H37.212V27.128Z" fill="black"/>
<path d="M49.5557 27.128H44.6277V15.224H41.5877V11.128H44.6277V6.168H49.5557V11.128H52.5957V15.224H49.5557V27.128Z" fill="black"/>
<path d="M62.0782 27.544C57.2462 27.544 53.7902 24.024 53.7902 19.096C53.7902 14.104 57.1502 10.616 61.9822 10.616C67.0062 10.616 70.1423 13.912 70.1423 19.128V20.376L58.5262 20.44C58.8142 22.552 59.9982 23.544 62.1742 23.544C64.0302 23.544 65.3423 22.872 65.6943 21.72H70.2063C69.6302 25.272 66.4622 27.544 62.0782 27.544ZM62.0142 14.616C60.0622 14.616 58.9742 15.48 58.5902 17.4H65.2462C65.2462 15.704 63.9982 14.616 62.0142 14.616Z" fill="black"/>
<path d="M84.0685 11.128V15.768H82.5005C79.6845 15.768 77.9885 17.016 77.9885 20.184V27.128H73.0605V11.16H77.7005L77.9565 13.528C78.6285 11.96 80.0365 10.904 82.1805 10.904C82.7565 10.904 83.3965 10.968 84.0685 11.128Z" fill="black"/>
<path d="M93.5 3L95.2357 6.14179L98.7126 5.57481L97.4 8.92558L100 11.3604L96.6276 12.3969L96.3928 16L93.5 13.9418L90.6072 16L90.3724 12.3969L87 11.3604L89.6 8.92558L88.2874 5.57481L91.7643 6.14179L93.5 3Z" fill="#1CCD83"/>
</svg>
