<svg width="79" height="24" viewBox="0 0 79 24" fill="none" xmlns="http://www.w3.org/2000/svg">
<path d="M2.81036 8.44149C2.81036 4.72536 5.48597 2.32227 9.57371 2.32227C13.0916 2.32227 15.8416 4.75014 15.9655 7.97078H12.0759C11.9273 6.63297 10.8867 5.79065 9.37552 5.79065C7.64133 5.79065 6.65036 6.53388 6.65036 7.87168C6.65036 8.9122 7.22017 9.53156 8.48365 9.90317L11.0849 10.6712C13.7853 11.4887 15.0736 12.9999 15.0736 15.403C15.0736 18.9705 12.3732 21.3241 8.23591 21.3241C4.24726 21.3241 1.67075 19.1687 1.54688 15.6756H5.43642C5.51075 17.0381 6.62558 17.8557 8.40933 17.8557C10.1931 17.8557 11.2584 17.0877 11.2584 15.7994C11.2584 14.8828 10.8372 14.4368 9.67281 14.09L6.9972 13.322C4.32158 12.554 2.81036 10.795 2.81036 8.44149Z" fill="#FF7037"/>
<path d="M20.3679 6.63297C19.3274 6.63297 18.5842 5.86498 18.5842 4.84923C18.5842 3.56097 19.7486 2.39659 21.0616 2.39659C22.1021 2.39659 22.8453 3.16459 22.8453 4.18033C22.8453 5.44381 21.6562 6.63297 20.3679 6.63297ZM16.2802 21.002L18.2373 8.61491H21.9287L19.9715 21.002H16.2802Z" fill="#FF7037"/>
<path d="M28.8078 21.002H24.9925V11.786H22.639V8.61491H24.9925V4.77491H28.8078V8.61491H31.1613V11.786H28.8078V21.002Z" fill="black"/>
<path d="M38.3642 21.002H34.549V11.786H32.1955V8.61491H34.549V4.77491H38.3642V8.61491H40.7178V11.786H38.3642V21.002Z" fill="black"/>
<path d="M48.0591 21.3241C44.3182 21.3241 41.6425 18.5989 41.6425 14.7837C41.6425 10.9189 44.2438 8.21852 47.9847 8.21852C51.8743 8.21852 54.3022 10.7703 54.3022 14.8085V15.7747L45.3091 15.8242C45.5321 17.4593 46.4487 18.2273 48.1334 18.2273C49.5703 18.2273 50.586 17.707 50.8585 16.8152H54.3517C53.9058 19.5651 51.4531 21.3241 48.0591 21.3241ZM48.0095 11.3153C46.4983 11.3153 45.656 11.9842 45.3587 13.4707H50.5117C50.5117 12.1576 49.5455 11.3153 48.0095 11.3153Z" fill="black"/>
<path d="M65.0838 8.61491V12.2072H63.8698C61.6897 12.2072 60.3767 13.1734 60.3767 15.626V21.002H56.5615V8.63969H60.1537L60.3519 10.473C60.8722 9.25904 61.9622 8.44149 63.6221 8.44149C64.068 8.44149 64.5635 8.49104 65.0838 8.61491Z" fill="black"/>
<path d="M72.3877 2.32227L73.7315 4.75462L76.4233 4.31567L75.4071 6.90981L77.42 8.7948L74.8091 9.59729L74.6273 12.3868L72.3877 10.7933L70.1482 12.3868L69.9664 9.59729L67.3555 8.7948L69.3684 6.90981L68.3522 4.31567L71.044 4.75462L72.3877 2.32227Z" fill="#1CCD83"/>
</svg>
