        <svg
          width="212"
          height="64"
          viewBox="0 0 212 64"
          fill="none"
          xmlns="http://www.w3.org/2000/svg"
        >
          <path
            d="M8.20914 22.5116C8.20914 12.6019 15.3441 6.1936 26.2448 6.1936C35.6259 6.1936 42.9591 12.6679 43.2894 21.2563H32.9173C32.5209 17.6888 29.7462 15.4426 25.7162 15.4426C21.0917 15.4426 18.4491 17.4246 18.4491 20.9921C18.4491 23.7668 19.9686 25.4184 23.3379 26.4094L30.2747 28.4574C37.4757 30.6375 40.9111 34.6674 40.9111 41.0757C40.9111 50.589 33.7101 56.8651 22.6773 56.8651C12.0409 56.8651 5.17017 51.1175 4.83984 41.8024H15.212C15.4102 45.436 18.3831 47.6161 23.1397 47.6161C27.8964 47.6161 30.7372 45.5681 30.7372 42.1327C30.7372 39.6883 29.6141 38.4992 26.509 37.5743L19.374 35.5263C12.2391 33.4783 8.20914 28.7877 8.20914 22.5116Z"
            fill="#FF7037"
          />
          <path
            d="M55.0293 17.6888C52.2546 17.6888 50.2727 15.6408 50.2727 12.9322C50.2727 9.49683 53.3777 6.39179 56.8791 6.39179C59.6538 6.39179 61.6358 8.4398 61.6358 11.1484C61.6358 14.5177 58.4647 17.6888 55.0293 17.6888ZM44.1287 56.0063L49.3478 22.974H59.1914L53.9723 56.0063H44.1287Z"
            fill="#FF7037"
          />
          <path
            d="M77.5356 56.0063H67.3617V31.4303H61.0856V22.974H67.3617V12.734H77.5356V22.974H83.8118V31.4303H77.5356V56.0063Z"
            fill="white"
          />
          <path
            d="M103.02 56.0063H92.8456V31.4303H86.5695V22.974H92.8456V12.734H103.02V22.974H109.296V31.4303H103.02V56.0063Z"
            fill="white"
          />
          <path
            d="M128.872 56.8651C118.897 56.8651 111.762 49.598 111.762 39.4241C111.762 29.118 118.699 21.917 128.674 21.917C139.046 21.917 145.521 28.7216 145.521 39.4901V42.0667L121.539 42.1988C122.134 46.5591 124.578 48.6071 129.071 48.6071C132.902 48.6071 135.611 47.2197 136.338 44.8414H145.653C144.464 52.1745 137.923 56.8651 128.872 56.8651ZM128.74 30.175C124.71 30.175 122.464 31.9588 121.671 35.9227H135.413C135.413 32.4212 132.836 30.175 128.74 30.175Z"
            fill="white"
          />
          <path
            d="M174.272 22.974V32.5534H171.035C165.221 32.5534 161.719 35.1299 161.719 41.6703V56.0063H151.546V23.0401H161.125L161.653 27.9288C163.041 24.6917 165.948 22.5116 170.374 22.5116C171.563 22.5116 172.884 22.6437 174.272 22.974Z"
            fill="white"
          />
          <path
            d="M193.744 6.1936L197.327 12.6799L204.505 11.5093L201.795 18.4271L207.163 23.4537L200.2 25.5937L199.716 33.0323L193.744 28.7831L187.771 33.0323L187.287 25.5937L180.324 23.4537L185.692 18.4271L182.982 11.5093L190.16 12.6799L193.744 6.1936Z"
            fill="#1CCD83"
          />
        </svg>