<svg width="18" height="18" viewBox="0 0 18 18" fill="currentColor" xmlns="http://www.w3.org/2000/svg">
<path d="M8.14319 1.42372C8.53185 0.777902 9.46815 0.777901 9.85681 1.42372L12.0731 5.10651C12.2128 5.33853 12.4405 5.504 12.7043 5.56509L16.8918 6.53491C17.6261 6.70498 17.9154 7.59545 17.4213 8.16466L14.6036 11.4106C14.4261 11.6151 14.3391 11.8828 14.3625 12.1526L14.7342 16.4347C14.7994 17.1857 14.0419 17.736 13.3478 17.442L9.39009 15.7653C9.14076 15.6596 8.85924 15.6596 8.60991 15.7653L4.65216 17.442C3.95813 17.736 3.20065 17.1857 3.26582 16.4347L3.63745 12.1526C3.66087 11.8828 3.57387 11.6151 3.39637 11.4106L0.578707 8.16466C0.0845982 7.59545 0.373929 6.70498 1.10824 6.53491L5.29567 5.56509C5.55948 5.504 5.78723 5.33853 5.92685 5.10652L8.14319 1.42372Z" fill="#1CCD83"/>
</svg>
