<svg width="24" height="24" viewBox="0 0 24 24" fill="none" xmlns="http://www.w3.org/2000/svg">
<path d="M22.0362 12.9367C22.486 12.9367 22.8507 12.572 22.8507 12.1222V9.1086C22.8507 7.53673 21.5719 6.25792 20 6.25792H19.5928V5.85068C19.5928 4.27881 18.3139 3 16.7421 3H4.80995C3.26053 3 2 4.26053 2 5.80995V14.8914C2 16.4633 3.27881 17.7421 4.85068 17.7421H5.25792V18.1493C5.25792 19.7212 6.53673 21 8.1086 21H20.0069C21.575 21 22.8507 19.7243 22.8507 18.156L22.8501 16.2949C22.8501 16.1018 22.7814 15.9151 22.6565 15.7679L18.8014 11.2284C18.6461 11.0456 18.42 10.9409 18.1783 10.9412C17.9384 10.9419 17.7111 11.0482 17.5568 11.2319L13.8584 15.6361L12.1205 13.5193C11.9676 13.3331 11.7401 13.2242 11.4992 13.2217C11.2573 13.2199 11.0286 13.3237 10.872 13.5068L6.887 18.1673C6.88692 18.1613 6.88688 18.1553 6.88688 18.1493V9.06787C6.88688 8.4167 7.41666 7.88688 8.06787 7.88688H20C20.6737 7.88688 21.2217 8.43494 21.2217 9.1086V12.1222C21.2217 12.572 21.5864 12.9367 22.0362 12.9367ZM11.4783 15.3043L13.2219 17.4279C13.3756 17.6151 13.6046 17.7242 13.8469 17.7256C14.0891 17.7254 14.3193 17.6204 14.4751 17.4349L18.184 13.018L21.2212 16.5944L21.2217 18.1562C21.2217 18.8261 20.6768 19.371 20.0069 19.371H8.1086C8.07366 19.371 8.039 19.3696 8.00479 19.3667L11.4783 15.3043ZM5.25792 9.06787V16.1131H4.85068C4.17702 16.1131 3.62896 15.5651 3.62896 14.8914V5.80995C3.62896 5.15878 4.15874 4.62896 4.80995 4.62896H16.7421C17.4157 4.62896 17.9638 5.17702 17.9638 5.85068V6.25792H8.06787C6.51845 6.25792 5.25792 7.51845 5.25792 9.06787ZM10.3077 9.63801C10.87 9.63801 11.3258 10.0938 11.3258 10.6561C11.3258 11.2184 10.87 11.6742 10.3077 11.6742C9.74542 11.6742 9.28959 11.2184 9.28959 10.6561C9.28959 10.0938 9.74542 9.63801 10.3077 9.63801Z" fill="#7B7E8F"/>
</svg>
